<svg width="368" height="311" viewBox="0 0 368 311" fill="none" xmlns="http://www.w3.org/2000/svg">
<rect x="361.229" y="271.006" width="264.729" height="264.505" rx="12.9223" transform="rotate(180 361.229 271.006)" fill="#FEE94E" stroke="black" stroke-width="13"/>
<mask id="mask0_3806_2200" style="mask-type:alpha" maskUnits="userSpaceOnUse" x="102" y="13" width="253" height="252">
<rect x="354.724" y="264.441" width="251.815" height="251.414" rx="6" transform="rotate(180 354.724 264.441)" fill="#797B77"/>
</mask>
<g mask="url(#mask0_3806_2200)">
<path d="M342.424 12.7087L341.908 12H354.908V266H345.788L346.154 265.043C346.547 264.016 346.748 262.927 346.748 261.828V260.478V26.0553L346.439 23.146C346.325 22.0752 346.132 21.0144 345.86 19.9724C345.178 17.3578 344.013 14.8941 342.424 12.7087Z" fill="#FFFD84"/>
</g>
<rect x="306.322" y="271.006" width="264.729" height="264.505" rx="12.9223" transform="rotate(180 306.322 271.006)" fill="#6EAB50" stroke="black" stroke-width="13"/>
<path d="M53.7432 26.5322V48.7993C53.7432 52.3046 56.5847 55.1462 60.09 55.1462C63.2843 55.1462 65.9809 52.7722 66.3857 49.6037L68.1164 36.0574C68.437 33.548 70.4163 31.5743 72.9266 31.2608L87.9063 29.3898C90.5477 29.0599 92.5299 26.8146 92.5299 24.1527C92.5299 21.2379 90.167 18.875 87.2522 18.875H61.4004C57.1714 18.875 53.7432 22.3033 53.7432 26.5322Z" fill="white" style="mix-blend-mode:soft-light"/>
<mask id="mask1_3806_2200" style="mask-type:alpha" maskUnits="userSpaceOnUse" x="48" y="13" width="252" height="252">
<rect x="299.816" y="264.441" width="251.815" height="251.414" rx="6" transform="rotate(180 299.816 264.441)" fill="#797B77"/>
</mask>
<g mask="url(#mask1_3806_2200)">
<path d="M287.516 12.7087L287.001 12H300.001V266H290.881L291.247 265.043C291.64 264.016 291.841 262.927 291.841 261.828V260.478V26.0553L291.532 23.146C291.418 22.0752 291.225 21.0144 290.953 19.9724C290.271 17.3578 289.105 14.8941 287.516 12.7087Z" fill="#ADE387"/>
</g>
<path d="M35.7676 198.494L7.00096 190.792" stroke="black" stroke-width="13" stroke-linecap="round"/>
<path d="M306.57 209.568L277.804 201.867" stroke="black" stroke-width="13" stroke-linecap="round"/>
<path d="M289.298 71.354L305.858 25.8359L322.417 71.354C324.754 77.7757 323.166 84.9692 318.345 89.8117C311.457 96.7294 300.258 96.7294 293.37 89.8117C288.549 84.9692 286.962 77.7757 289.298 71.354Z" fill="#00C2FF" stroke="black" stroke-width="9" stroke-linejoin="round"/>
<mask id="mask2_3806_2200" style="mask-type:alpha" maskUnits="userSpaceOnUse" x="292" y="38" width="27" height="53">
<path d="M293.542 72.9422C297.457 62.1122 304.653 42.2232 305.859 38.9922C306.713 41.2962 314.108 61.687 318.184 72.9307C319.829 77.4675 318.845 82.5393 315.626 86.1339C310.271 92.1116 300.849 91.9131 295.749 85.7165C292.81 82.145 291.97 77.292 293.542 72.9422Z" fill="#00C2FF"/>
</mask>
<g mask="url(#mask2_3806_2200)">
<path d="M306.322 54.2314L303 46L306 36.5L310 41L317.5 59L320.5 72.5L318 89.5L303 91.5L295 90L293.5 84L294.751 83.5831C295.914 83.1953 297.038 82.6936 298.104 82.0868C300.643 80.6414 302.813 78.6206 304.434 76.1896C305.494 74.5993 306.305 72.8562 306.838 71.0209L307.119 70.0544C308.196 66.3481 308.372 62.4381 307.632 58.6501C307.337 57.1389 306.898 55.6593 306.322 54.2314Z" fill="#80E1FF"/>
</g>
<path d="M119.382 198.666V198.666C144.318 206.811 171.139 207.188 196.288 199.746L199.939 198.666" stroke="black" stroke-width="17.3414" stroke-linecap="round"/>
<path d="M181.044 274.736V304.494M242.685 274.736V304.494" stroke="black" stroke-width="13" stroke-linecap="round"/>
<rect x="78.0352" y="170.238" width="21.4703" height="39.4458" rx="10.7352" fill="black"/>
<rect x="220.824" y="170.238" width="21.4703" height="39.4458" rx="10.7352" fill="black"/>
</svg>
