<svg version="1.1" id="Layer_1" xmlns="http://www.w3.org/2000/svg" xmlns:xlink="http://www.w3.org/1999/xlink" x="0px" y="0px"
	 width="100%" viewBox="0 0 750 750" enable-background="new 0 0 750 750" xml:space="preserve">
<path fill="#FFD601" opacity="1.000000" stroke="none" 
	d="
M401.000000,751.000000 
	C396.643097,751.000000 392.286194,751.000000 387.378845,750.600525 
	C386.219757,745.931213 385.480316,741.675171 385.025238,737.389038 
	C383.123688,719.478638 364.533722,704.814331 346.635956,707.172546 
	C327.051575,709.752991 307.472717,712.377441 287.878265,714.879456 
	C267.836487,717.438599 255.430801,730.998413 255.000000,751.000000 
	C250.310745,751.000000 245.621490,751.000000 240.469971,750.622986 
	C235.438507,733.881470 218.735886,723.334473 202.041428,725.658997 
	C182.465759,728.384766 162.796646,730.434448 143.208298,733.075684 
	C131.609161,734.639709 122.040527,739.625183 117.000000,751.000000 
	C106.645775,751.000000 96.291542,751.000000 85.234589,750.757202 
	C76.596817,744.994324 68.048355,742.300903 58.212364,743.804871 
	C49.021629,745.210083 39.723061,745.894226 30.502243,747.123047 
	C21.980612,748.258667 13.499152,749.695679 5.000001,751.000000 
	C3.700819,751.000000 2.401637,751.000000 1.000000,751.000000 
	C1.000000,746.649719 1.000000,742.299011 1.413409,737.442444 
	C19.762348,734.625305 37.670612,732.069397 55.640503,730.066345 
	C76.701607,727.718567 89.472038,709.671570 87.682648,692.361450 
	C85.619064,672.398926 82.525085,652.545044 80.108955,632.616028 
	C77.408188,610.339294 59.457031,596.924866 37.551498,600.509949 
	C25.446949,602.491089 13.188874,603.534119 1.000000,605.000000 
	C1.000000,600.643127 1.000000,596.286194 1.427835,591.457520 
	C15.032589,589.287292 28.262018,587.915894 41.373646,585.810791 
	C59.272282,582.937012 71.776245,564.834534 69.302345,546.851562 
	C66.609238,527.275208 64.173401,507.656982 62.035866,488.012329 
	C59.805279,467.512482 39.727646,453.773132 22.787174,456.686981 
	C15.604667,457.922424 8.267097,458.256348 1.000001,459.000000 
	C1.000000,454.643097 1.000000,450.286194 1.436280,445.472931 
	C8.799438,444.202789 15.817600,443.847260 22.636045,442.489075 
	C42.929466,438.446899 53.901173,421.177856 50.865879,399.327454 
	C48.329529,381.068787 46.383072,362.728424 43.872192,344.465942 
	C42.156590,331.987762 35.948803,322.445190 24.407145,316.608643 
	C16.935387,312.830231 9.013480,312.819580 1.000000,313.000000 
	C1.000000,308.643097 1.000000,304.286194 1.423265,299.490784 
	C3.811339,298.779755 5.846294,298.747559 7.730090,298.197601 
	C26.139647,292.823059 35.768055,276.225769 32.827568,256.105835 
	C30.235313,238.368622 28.202646,220.549103 25.972435,202.759705 
	C24.014896,187.145294 16.164488,176.208191 1.000000,171.000000 
	C1.000000,163.979050 1.000000,156.958099 1.294269,149.312469 
	C12.570864,140.084579 16.431936,128.569595 14.867813,115.100388 
	C12.688175,96.330765 10.590063,77.536720 7.667547,58.876781 
	C6.703395,52.720772 3.292265,46.948002 1.000000,41.000000 
	C1.000000,27.778381 1.000000,14.556764 1.000000,1.000000 
	C5.344844,1.000000 9.698295,1.000000 14.519687,1.372887 
	C16.613779,3.054585 18.379280,5.630743 19.843813,5.469711 
	C30.596365,4.287420 41.288692,2.557402 52.000000,1.000000 
	C95.354225,1.000000 138.708450,1.000000 182.303864,1.243920 
	C168.434174,10.208958 162.695496,23.651724 165.173615,40.893440 
	C167.654083,58.151684 170.054886,75.434219 171.884445,92.770081 
	C174.451355,117.092781 192.143387,130.400482 216.445038,126.524429 
	C233.491165,123.805626 250.662369,121.667976 267.853912,120.113632 
	C291.038147,118.017464 305.442841,99.444077 301.666229,76.288345 
	C299.288544,61.709885 297.784393,46.986328 296.005920,32.313618 
	C294.661499,21.221878 293.698120,10.045401 286.000000,1.000000 
	C293.687592,1.000000 301.375153,1.000000 309.526611,1.402849 
	C309.366028,7.225537 307.726166,12.755216 308.298462,18.045601 
	C310.423279,37.688721 313.816956,57.201286 315.700165,76.861916 
	C317.496338,95.614037 334.227478,111.839096 356.835510,108.889145 
	C376.763275,106.288933 396.698761,103.744263 416.610229,101.024170 
	C433.443146,98.724655 447.240448,81.742325 445.853333,64.783012 
	C445.123016,55.853439 443.626740,46.987633 442.523956,38.087132 
	C440.992554,25.727657 439.505859,13.362640 438.000000,0.999999 
	C442.356903,1.000000 446.713806,1.000000 451.539185,1.429198 
	C454.431488,21.287582 456.448669,40.778572 459.389709,60.129154 
	C462.544006,80.882988 480.388245,93.691666 500.101990,90.811707 
	C517.993469,88.197968 535.938660,85.825706 553.929565,84.049667 
	C578.406189,81.633377 592.425354,63.618786 588.516846,39.549511 
	C586.445190,26.791597 585.470154,13.855599 584.000000,0.999998 
	C588.356873,1.000000 592.713806,1.000000 597.527039,1.436284 
	C599.642700,15.224804 601.435059,28.562168 602.929504,41.932823 
	C605.075317,61.131340 623.579834,75.464035 642.673645,72.823952 
	C662.749695,70.048050 682.851746,67.440689 702.974976,65.031395 
	C721.150208,62.855354 735.621826,43.408661 732.631104,25.253424 
	C731.311401,17.241863 730.850708,9.088811 730.000000,1.000001 
	C734.356873,1.000000 738.713806,1.000000 743.508179,1.447273 
	C744.312439,6.012545 744.384033,10.183376 745.109436,14.237206 
	C746.491638,21.960621 745.753357,30.269827 751.000000,37.000000 
	C751.000000,80.354225 751.000000,123.708458 750.759277,167.214417 
	C748.031799,148.265961 745.364929,129.186966 743.110840,110.059349 
	C741.007935,92.214500 726.603333,78.791550 708.676208,79.040771 
	C701.728149,79.137352 694.777710,80.170662 687.858704,81.023155 
	C672.197754,82.952728 656.480286,84.582710 640.925903,87.174881 
	C623.164062,90.134926 610.785095,108.861420 613.570068,126.619537 
	C615.422119,138.428650 616.535767,150.352768 618.029175,162.219208 
	C619.148987,171.116852 619.654846,180.163376 621.650452,188.864670 
	C626.201477,208.708328 643.331055,218.963272 664.753723,215.835037 
	C679.871277,213.627518 695.067078,211.961212 710.213440,209.944443 
	C719.735718,208.676514 729.323792,208.014587 737.447021,201.554337 
	C744.628601,195.842987 748.129578,188.214996 751.000000,180.000000 
	C751.000000,197.020889 751.000000,214.041794 750.703857,231.371857 
	C742.345581,224.760345 733.180359,221.081436 722.416748,222.416397 
	C702.327881,224.907944 682.220764,227.277481 662.174011,230.076050 
	C642.051208,232.885208 630.036011,249.173035 631.463623,266.881592 
	C633.128601,287.535004 636.503174,308.048279 639.033813,328.634888 
	C641.548157,349.089081 660.169800,362.712280 680.490784,359.497742 
	C695.068909,357.191681 709.837769,356.102295 724.429504,353.868774 
	C733.376160,352.499298 742.149048,349.994781 751.000000,348.000000 
	C751.000000,353.688049 751.000000,359.376068 750.533325,365.538635 
	C745.575562,366.129364 741.045288,365.907410 736.600647,366.423523 
	C721.750854,368.147888 706.916077,370.023285 692.107910,372.073975 
	C685.218750,373.028015 678.003357,373.488342 671.632812,375.965179 
	C654.524536,382.616760 647.194580,398.673431 650.272583,418.485291 
	C652.949463,435.715485 655.177795,453.037109 656.897156,470.388428 
	C658.756897,489.156433 673.295654,503.364563 692.033081,502.992004 
	C700.640747,502.820862 709.226746,501.429260 717.816833,500.536377 
	C728.880859,499.386353 739.939209,498.181366 751.000000,497.000000 
	C751.000000,501.356903 751.000000,505.713806 750.548340,510.505310 
	C733.630127,512.930603 717.168091,514.959412 700.695984,516.903015 
	C677.809692,519.603455 664.735413,537.353455 668.187317,560.199524 
	C670.887878,578.073059 673.081421,596.036926 674.959778,614.017151 
	C676.993713,633.485901 691.886047,647.763245 711.497681,646.802063 
	C724.711853,646.154419 737.835754,643.665283 751.000000,642.000000 
	C751.000000,646.356873 751.000000,650.713806 750.600342,655.621582 
	C740.352966,657.456299 730.526794,658.948059 720.652405,659.975830 
	C705.365295,661.567017 693.911743,668.386597 687.990723,683.048828 
	C684.128296,692.613464 686.388306,702.346008 687.508606,712.030396 
	C689.011292,725.019592 690.503357,738.010071 692.000000,751.000000 
	C687.643127,751.000000 683.286194,751.000000 678.478333,750.557739 
	C676.049316,734.300293 674.032288,718.489868 672.103027,702.668762 
	C669.598877,682.132874 652.685608,668.638733 632.122925,671.151123 
	C612.014648,673.607971 591.934509,676.302185 571.857300,679.005737 
	C553.079346,681.534424 539.767456,700.064819 542.593201,718.819519 
	C544.198730,729.475586 544.894531,740.268616 546.000000,751.000000 
	C541.643127,751.000000 537.286194,751.000000 532.492798,750.552734 
	C530.656555,738.572327 529.939636,726.904358 527.696533,715.537659 
	C524.356995,698.615234 506.377960,686.852783 489.344421,689.166260 
	C469.110718,691.914368 448.852905,694.491760 428.587402,696.996399 
	C412.733093,698.955872 398.961273,713.761047 399.052460,729.699158 
	C399.093140,736.802917 400.314514,743.899902 401.000000,751.000000 
M474.312958,189.242889 
	C469.948090,189.173203 465.583221,189.103516 461.134399,188.136307 
	C459.449158,174.298096 457.731781,160.463715 456.086334,146.620773 
	C453.726807,126.770889 436.555725,112.772804 417.041016,115.135605 
	C396.446075,117.629196 375.865112,120.257187 355.314087,123.088097 
	C337.878296,125.489868 324.129822,143.423599 326.157654,160.904343 
	C327.247498,170.299103 328.679077,179.654221 329.053497,189.246933 
	C324.671570,189.171906 320.289612,189.096878 315.796814,188.212860 
	C314.858887,180.976715 313.645355,173.763718 313.035553,166.500046 
	C311.315277,146.007690 292.870636,130.499313 273.369904,133.183929 
	C253.815231,135.875931 234.243286,138.452576 214.654968,140.887131 
	C195.324860,143.289581 182.725998,157.287781 182.969101,176.635757 
	C183.021057,180.769485 183.641434,184.896042 183.128372,189.246094 
	C178.761398,189.497131 174.394440,189.748154 169.990341,189.161057 
	C169.645645,186.528671 169.285507,183.898178 168.958710,181.263580 
	C166.766891,163.593399 148.456024,148.975494 131.394135,151.185425 
	C110.823524,153.849808 90.254082,156.530807 69.660393,159.007187 
	C51.400223,161.202972 36.738895,179.840790 39.179119,197.709229 
	C41.940845,217.931854 44.396618,238.196106 47.032887,258.436096 
	C48.325470,268.359863 53.125263,276.212677 61.164822,282.175690 
	C71.864853,290.112000 83.710426,289.404663 96.029404,287.606995 
	C113.923965,284.995697 131.918121,283.066864 150.039001,281.782349 
	C149.984879,286.186371 149.930756,290.590393 149.020065,294.999115 
	C127.454025,297.726746 105.810318,299.960968 84.346733,303.339478 
	C67.431068,306.002136 55.109005,324.933563 57.591022,341.763245 
	C59.745186,356.369873 61.080868,371.095490 63.075623,385.727997 
	C64.215813,394.091858 64.863113,402.759430 67.642838,410.614136 
	C73.458069,427.046295 90.525009,434.734131 109.844681,431.664276 
	C123.107697,429.556824 136.522659,428.405487 150.038940,427.763123 
	C149.986343,432.140686 149.933746,436.518250 149.011322,440.923889 
	C139.125946,442.080109 129.237900,443.214203 119.356300,444.401917 
	C114.416389,444.995636 109.433182,445.411194 104.564293,446.382324 
	C83.256340,450.632172 72.570877,468.317688 76.266624,491.513794 
	C79.031578,508.867920 81.153839,526.344666 82.925758,543.831360 
	C84.935745,563.667480 103.798813,578.710693 123.209679,575.791260 
	C138.458603,573.497803 153.834167,572.056335 169.103699,569.886169 
	C178.225891,568.589661 187.805573,568.835938 196.838593,563.102539 
	C248.150589,563.094971 299.462585,563.073914 350.774567,563.089172 
	C363.930603,563.093079 377.086609,563.211426 389.977936,563.906738 
	C380.981476,574.133240 379.704102,586.025818 381.642792,599.004028 
	C384.119934,615.587097 386.351257,632.232666 387.877655,648.925537 
	C389.982361,671.943420 408.327911,686.307373 431.236969,682.780884 
	C448.789185,680.078979 466.434021,677.862488 484.101654,676.055420 
	C507.485199,673.663574 521.587585,655.247009 517.583984,631.999817 
	C515.979431,622.683228 515.396179,613.194519 513.939575,603.847839 
	C511.824738,590.277222 512.186951,576.253601 507.677216,563.105713 
	C513.417114,563.157532 519.156982,563.209351 524.767517,564.042297 
	C524.597290,567.671692 523.910461,571.363831 524.342651,574.920044 
	C526.725342,594.526550 529.564148,614.078003 531.893127,633.690369 
	C534.341614,654.307922 552.995789,668.147400 573.683167,664.667786 
	C583.168091,663.072388 592.784058,662.270752 602.322327,660.974609 
	C613.831787,659.410706 625.480835,658.414551 636.781494,655.885742 
	C652.151306,652.446350 663.805847,634.627197 661.839722,619.456238 
	C659.173218,598.880798 656.518311,578.303345 654.002563,557.709167 
	C652.202515,542.973938 639.805664,529.597534 625.067078,528.164368 
	C617.596191,527.437927 609.934143,528.677612 602.203613,528.106567 
	C602.266418,523.735840 602.329285,519.365173 603.200378,514.977722 
	C606.332703,514.632080 609.465393,514.289673 612.597290,513.940308 
	C632.169739,511.757172 646.048340,493.341766 643.308044,473.851013 
	C640.605164,454.626526 638.077209,435.363861 636.118103,416.052429 
	C634.353699,398.661072 619.931091,384.487732 602.205994,383.055634 
	C602.264099,378.076050 602.322266,373.096497 603.074768,367.999878 
	C617.764771,362.957245 627.526367,346.399445 625.405701,331.349243 
	C622.628235,311.637268 620.505615,291.833862 617.935669,272.091400 
	C616.545471,261.412598 612.139587,252.428101 602.200378,245.928085 
	C602.042542,234.076675 601.884705,222.225266 602.265686,209.831268 
	C608.203735,201.786148 607.706604,192.512802 606.710388,183.425613 
	C604.740417,165.455460 602.007568,147.569275 600.011108,129.601593 
	C597.589600,107.806816 578.950073,93.879028 557.267090,97.329720 
	C540.238281,100.039734 523.106079,102.327835 505.935913,103.868492 
	C480.494293,106.151337 466.717285,123.596382 470.619690,148.968414 
	C472.660980,162.240204 473.735260,175.660721 474.312958,189.242889 
M371.506042,673.800049 
	C372.599213,667.640198 375.100525,661.345703 374.526917,655.345154 
	C372.648560,635.695312 369.510712,616.169434 367.121765,596.563721 
	C364.370911,573.987549 346.930695,560.899475 324.161591,564.176147 
	C306.421021,566.729126 288.631927,568.998291 270.817749,570.973206 
	C247.987411,573.504211 234.509460,590.762695 237.699341,613.277100 
	C240.143707,630.529663 242.224609,647.844482 243.986206,665.180481 
	C246.540039,690.313049 263.708099,704.336609 287.787842,700.840637 
	C305.032379,698.336975 322.300171,695.840820 339.638000,694.180969 
	C353.723969,692.832520 364.188568,686.697327 371.506042,673.800049 
M223.997467,616.589905 
	C221.010300,591.409729 203.990768,578.788757 179.136200,582.637207 
	C162.564026,585.203247 145.899780,587.376953 129.200180,588.869934 
	C104.803307,591.051086 90.716888,608.354309 94.142532,632.636963 
	C96.578430,649.903931 98.939735,667.188904 100.873924,684.517273 
	C103.659454,709.472839 121.044052,722.645752 146.033661,718.805603 
	C162.937347,716.208008 179.905960,713.917664 196.913391,712.138367 
	C220.086716,709.714050 233.852051,692.916016 230.859207,669.851135 
	C228.593704,652.391479 226.304230,634.935059 223.997467,616.589905 
M128.004990,137.755722 
	C129.308731,137.487701 130.613785,137.225784 131.916031,136.950760 
	C148.200455,133.511673 161.010666,115.360268 158.790878,99.224892 
	C156.096603,79.640388 153.452194,60.045872 151.106445,40.417416 
	C148.487152,18.500132 130.546356,4.933700 108.848213,8.178843 
	C90.945229,10.856386 72.961708,13.089171 54.955803,14.960167 
	C34.160812,17.120975 18.844206,34.144112 21.132761,53.807007 
	C23.552734,74.599030 26.221786,95.366341 29.123714,116.096626 
	C31.474737,132.891479 45.823700,145.170517 62.770172,145.025299 
	C69.228081,144.969971 75.697487,144.169189 82.127983,143.419342 
	C97.144424,141.668289 112.140472,139.742294 128.004990,137.755722 
z"/>
<path fill="#FEE94E" opacity="1.000000" stroke="none" 
	d="
M751.000000,179.539368 
	C748.129578,188.214996 744.628601,195.842987 737.447021,201.554337 
	C729.323792,208.014587 719.735718,208.676514 710.213440,209.944443 
	C695.067078,211.961212 679.871277,213.627518 664.753723,215.835037 
	C643.331055,218.963272 626.201477,208.708328 621.650452,188.864670 
	C619.654846,180.163376 619.148987,171.116852 618.029175,162.219208 
	C616.535767,150.352768 615.422119,138.428650 613.570068,126.619537 
	C610.785095,108.861420 623.164062,90.134926 640.925903,87.174881 
	C656.480286,84.582710 672.197754,82.952728 687.858704,81.023155 
	C694.777710,80.170662 701.728149,79.137352 708.676208,79.040771 
	C726.603333,78.791550 741.007935,92.214500 743.110840,110.059349 
	C745.364929,129.186966 748.031799,148.265961 750.759277,167.683075 
	C751.000000,171.692902 751.000000,175.385818 751.000000,179.539368 
z"/>
<path fill="#FEE94E" opacity="1.000000" stroke="none" 
	d="
M285.531342,1.000000 
	C293.698120,10.045401 294.661499,21.221878 296.005920,32.313618 
	C297.784393,46.986328 299.288544,61.709885 301.666229,76.288345 
	C305.442841,99.444077 291.038147,118.017464 267.853912,120.113632 
	C250.662369,121.667976 233.491165,123.805626 216.445038,126.524429 
	C192.143387,130.400482 174.451355,117.092781 171.884445,92.770081 
	C170.054886,75.434219 167.654083,58.151684 165.173615,40.893440 
	C162.695496,23.651724 168.434174,10.208958 182.772522,1.243920 
	C217.020889,1.000000 251.041794,1.000000 285.531342,1.000000 
z"/>
<path fill="#FEE94E" opacity="1.000000" stroke="none" 
	d="
M751.000000,347.531342 
	C742.149048,349.994781 733.376160,352.499298 724.429504,353.868774 
	C709.837769,356.102295 695.068909,357.191681 680.490784,359.497742 
	C660.169800,362.712280 641.548157,349.089081 639.033813,328.634888 
	C636.503174,308.048279 633.128601,287.535004 631.463623,266.881592 
	C630.036011,249.173035 642.051208,232.885208 662.174011,230.076050 
	C682.220764,227.277481 702.327881,224.907944 722.416748,222.416397 
	C733.180359,221.081436 742.345581,224.760345 750.703857,231.840515 
	C751.000000,270.354218 751.000000,308.708466 751.000000,347.531342 
z"/>
<path fill="#FEE94E" opacity="1.000000" stroke="none" 
	d="
M437.531342,0.999999 
	C439.505859,13.362640 440.992554,25.727657 442.523956,38.087132 
	C443.626740,46.987633 445.123016,55.853439 445.853333,64.783012 
	C447.240448,81.742325 433.443146,98.724655 416.610229,101.024170 
	C396.698761,103.744263 376.763275,106.288933 356.835510,108.889145 
	C334.227478,111.839096 317.496338,95.614037 315.700165,76.861916 
	C313.816956,57.201286 310.423279,37.688721 308.298462,18.045601 
	C307.726166,12.755216 309.366028,7.225537 309.995239,1.402849 
	C352.354218,1.000000 394.708466,1.000000 437.531342,0.999999 
z"/>
<path fill="#FEE94E" opacity="1.000000" stroke="none" 
	d="
M751.000000,496.531372 
	C739.939209,498.181366 728.880859,499.386353 717.816833,500.536377 
	C709.226746,501.429260 700.640747,502.820862 692.033081,502.992004 
	C673.295654,503.364563 658.756897,489.156433 656.897156,470.388428 
	C655.177795,453.037109 652.949463,435.715485 650.272583,418.485291 
	C647.194580,398.673431 654.524536,382.616760 671.632812,375.965179 
	C678.003357,373.488342 685.218750,373.028015 692.107910,372.073975 
	C706.916077,370.023285 721.750854,368.147888 736.600647,366.423523 
	C741.045288,365.907410 745.575562,366.129364 750.533325,366.006592 
	C751.000000,409.354218 751.000000,452.708466 751.000000,496.531372 
z"/>
<path fill="#FEE94E" opacity="1.000000" stroke="none" 
	d="
M583.531372,0.999998 
	C585.470154,13.855599 586.445190,26.791597 588.516846,39.549511 
	C592.425354,63.618786 578.406189,81.633377 553.929565,84.049667 
	C535.938660,85.825706 517.993469,88.197968 500.101990,90.811707 
	C480.388245,93.691666 462.544006,80.882988 459.389709,60.129154 
	C456.448669,40.778572 454.431488,21.287582 452.003845,1.429198 
	C495.687561,1.000000 539.375122,1.000000 583.531372,0.999998 
z"/>
<path fill="#FEE94E" opacity="1.000000" stroke="none" 
	d="
M1.000000,605.468628 
	C13.188874,603.534119 25.446949,602.491089 37.551498,600.509949 
	C59.457031,596.924866 77.408188,610.339294 80.108955,632.616028 
	C82.525085,652.545044 85.619064,672.398926 87.682648,692.361450 
	C89.472038,709.671570 76.701607,727.718567 55.640503,730.066345 
	C37.670612,732.069397 19.762348,734.625305 1.413409,736.968323 
	C1.000000,693.312439 1.000000,649.624878 1.000000,605.468628 
z"/>
<path fill="#FEE94E" opacity="1.000000" stroke="none" 
	d="
M751.000000,641.531372 
	C737.835754,643.665283 724.711853,646.154419 711.497681,646.802063 
	C691.886047,647.763245 676.993713,633.485901 674.959778,614.017151 
	C673.081421,596.036926 670.887878,578.073059 668.187317,560.199524 
	C664.735413,537.353455 677.809692,519.603455 700.695984,516.903015 
	C717.168091,514.959412 733.630127,512.930603 750.548340,510.969940 
	C751.000000,554.354248 751.000000,597.708435 751.000000,641.531372 
z"/>
<path fill="#FEE94E" opacity="1.000000" stroke="none" 
	d="
M546.468628,751.000000 
	C544.894531,740.268616 544.198730,729.475586 542.593201,718.819519 
	C539.767456,700.064819 553.079346,681.534424 571.857300,679.005737 
	C591.934509,676.302185 612.014648,673.607971 632.122925,671.151123 
	C652.685608,668.638733 669.598877,682.132874 672.103027,702.668762 
	C674.032288,718.489868 676.049316,734.300293 678.013672,750.557739 
	C634.312439,751.000000 590.624878,751.000000 546.468628,751.000000 
z"/>
<path fill="#FEE94E" opacity="1.000000" stroke="none" 
	d="
M729.531372,1.000001 
	C730.850708,9.088811 731.311401,17.241863 732.631104,25.253424 
	C735.621826,43.408661 721.150208,62.855354 702.974976,65.031395 
	C682.851746,67.440689 662.749695,70.048050 642.673645,72.823952 
	C623.579834,75.464035 605.075317,61.131340 602.929504,41.932823 
	C601.435059,28.562168 599.642700,15.224804 597.991699,1.436284 
	C641.687561,1.000000 685.375122,1.000000 729.531372,1.000001 
z"/>
<path fill="#FEE94E" opacity="1.000000" stroke="none" 
	d="
M1.000001,459.468689 
	C8.267097,458.256348 15.604667,457.922424 22.787174,456.686981 
	C39.727646,453.773132 59.805279,467.512482 62.035866,488.012329 
	C64.173401,507.656982 66.609238,527.275208 69.302345,546.851562 
	C71.776245,564.834534 59.272282,582.937012 41.373646,585.810791 
	C28.262018,587.915894 15.032589,589.287292 1.427835,590.992920 
	C1.000000,547.312439 1.000000,503.624878 1.000001,459.468689 
z"/>
<path fill="#FEE94E" opacity="1.000000" stroke="none" 
	d="
M401.468658,751.000000 
	C400.314514,743.899902 399.093140,736.802917 399.052460,729.699158 
	C398.961273,713.761047 412.733093,698.955872 428.587402,696.996399 
	C448.852905,694.491760 469.110718,691.914368 489.344421,689.166260 
	C506.377960,686.852783 524.356995,698.615234 527.696533,715.537659 
	C529.939636,726.904358 530.656555,738.572327 532.028198,750.552734 
	C488.645782,751.000000 445.291534,751.000000 401.468658,751.000000 
z"/>
<path fill="#FEE94E" opacity="1.000000" stroke="none" 
	d="
M1.000000,313.468658 
	C9.013480,312.819580 16.935387,312.830231 24.407145,316.608643 
	C35.948803,322.445190 42.156590,331.987762 43.872192,344.465942 
	C46.383072,362.728424 48.329529,381.068787 50.865879,399.327454 
	C53.901173,421.177856 42.929466,438.446899 22.636045,442.489075 
	C15.817600,443.847260 8.799438,444.202789 1.436280,445.008301 
	C1.000000,401.312439 1.000000,357.624878 1.000000,313.468658 
z"/>
<path fill="#FEE94E" opacity="1.000000" stroke="none" 
	d="
M692.468628,751.000000 
	C690.503357,738.010071 689.011292,725.019592 687.508606,712.030396 
	C686.388306,702.346008 684.128296,692.613464 687.990723,683.048828 
	C693.911743,668.386597 705.365295,661.567017 720.652405,659.975830 
	C730.526794,658.948059 740.352966,657.456299 750.600342,656.086243 
	C751.000000,687.576477 751.000000,719.152893 751.000000,751.000000 
	C731.646606,751.000000 712.291992,751.000000 692.468628,751.000000 
z"/>
<path fill="#FEE94E" opacity="1.000000" stroke="none" 
	d="
M255.468658,751.000000 
	C255.430801,730.998413 267.836487,717.438599 287.878265,714.879456 
	C307.472717,712.377441 327.051575,709.752991 346.635956,707.172546 
	C364.533722,704.814331 383.123688,719.478638 385.025238,737.389038 
	C385.480316,741.675171 386.219757,745.931213 386.914185,750.600525 
	C343.312439,751.000000 299.624878,751.000000 255.468658,751.000000 
z"/>
<path fill="#FEE94E" opacity="1.000000" stroke="none" 
	d="
M1.000000,171.468658 
	C16.164488,176.208191 24.014896,187.145294 25.972435,202.759705 
	C28.202646,220.549103 30.235313,238.368622 32.827568,256.105835 
	C35.768055,276.225769 26.139647,292.823059 7.730090,298.197601 
	C5.846294,298.747559 3.811339,298.779755 1.423265,299.026123 
	C1.000000,256.645782 1.000000,214.291550 1.000000,171.468658 
z"/>
<path fill="#FEE94E" opacity="1.000000" stroke="none" 
	d="
M117.468658,751.000000 
	C122.040527,739.625183 131.609161,734.639709 143.208298,733.075684 
	C162.796646,730.434448 182.465759,728.384766 202.041428,725.658997 
	C218.735886,723.334473 235.438507,733.881470 240.003860,750.622986 
	C199.312439,751.000000 158.624878,751.000000 117.468658,751.000000 
z"/>
<path fill="#FEE94E" opacity="1.000000" stroke="none" 
	d="
M1.000000,41.468658 
	C3.292265,46.948002 6.703395,52.720772 7.667547,58.876781 
	C10.590063,77.536720 12.688175,96.330765 14.867813,115.100388 
	C16.431936,128.569595 12.570864,140.084579 1.294269,148.843887 
	C1.000000,113.312439 1.000000,77.624878 1.000000,41.468658 
z"/>
<path fill="#FEE84B" opacity="1.000000" stroke="none" 
	d="
M5.468658,751.000000 
	C13.499152,749.695679 21.980612,748.258667 30.502243,747.123047 
	C39.723061,745.894226 49.021629,745.210083 58.212364,743.804871 
	C68.048355,742.300903 76.596817,744.994324 84.765930,750.757202 
	C58.645771,751.000000 32.291542,751.000000 5.468658,751.000000 
z"/>
<path fill="#FEE84B" opacity="1.000000" stroke="none" 
	d="
M751.000000,36.531342 
	C745.753357,30.269827 746.491638,21.960621 745.109436,14.237206 
	C744.384033,10.183376 744.312439,6.012545 743.972839,1.447273 
	C746.309326,1.000000 748.618652,1.000000 751.000000,1.000000 
	C751.000000,12.687481 751.000000,24.375082 751.000000,36.531342 
z"/>
<path fill="#FEE84B" opacity="1.000000" stroke="none" 
	d="
M51.531342,1.000000 
	C41.288692,2.557402 30.596365,4.287420 19.843813,5.469711 
	C18.379280,5.630743 16.613779,3.054585 14.993814,1.372887 
	C27.020895,1.000000 39.041790,1.000000 51.531342,1.000000 
z"/>
<path fill="#030401" opacity="1.000000" stroke="none" 
	d="
M390.242615,563.277161 
	C377.086609,563.211426 363.930603,563.093079 350.774567,563.089172 
	C299.462585,563.073914 248.150589,563.094971 195.916412,563.104736 
	C188.501144,563.045959 181.995514,563.220398 175.517517,562.875854 
	C161.303223,562.119751 152.354904,553.756775 150.699570,539.759827 
	C150.193054,535.476990 150.105728,531.126892 150.089249,526.806580 
	C149.979965,498.169830 149.942184,469.532776 149.881149,440.895813 
	C149.933746,436.518250 149.986343,432.140686 150.036423,426.850891 
	C150.043869,404.112213 150.082062,382.285767 150.055847,360.459351 
	C150.029648,338.637665 149.939026,316.816071 149.876648,294.994415 
	C149.930756,290.590393 149.984879,286.186371 150.036560,280.868347 
	C150.075974,259.337494 149.959473,238.718689 150.211899,218.104401 
	C150.399796,202.759293 155.831955,195.378632 170.027466,189.999191 
	C174.394440,189.748154 178.761398,189.497131 184.021301,189.246918 
	C226.927277,189.260818 268.940338,189.276901 310.953400,189.275696 
	C312.604828,189.275650 314.256256,189.110229 315.907684,189.021851 
	C320.289612,189.096878 324.671570,189.171906 329.966797,189.247223 
	C370.338348,189.260666 409.796600,189.281174 449.254852,189.275757 
	C453.242676,189.275208 457.230530,189.118210 461.218353,189.033813 
	C465.583221,189.103516 469.948090,189.173203 475.209534,189.239746 
	C487.761841,189.253494 499.417694,189.241257 511.073273,189.293579 
	C532.548523,189.389999 554.035522,189.130478 575.494812,189.777054 
	C590.592285,190.231949 597.367676,196.160461 601.726929,210.373856 
	C601.884705,222.225266 602.042542,234.076675 602.197998,246.858871 
	C602.185974,270.926544 602.146973,294.063477 602.176331,317.200348 
	C602.197876,334.172607 602.309143,351.144714 602.380432,368.116913 
	C602.322266,373.096497 602.264099,378.076050 602.203369,383.976257 
	C602.190918,416.636871 602.160950,448.376923 602.182068,480.116943 
	C602.189819,491.742798 602.318542,503.368622 602.392090,514.994446 
	C602.329285,519.365173 602.266418,523.735840 602.168945,529.017822 
	C602.066406,532.754395 602.098877,535.586426 601.910706,538.403625 
	C601.452209,545.268433 599.132263,551.266235 593.965637,556.106873 
	C588.652283,561.084961 582.273254,562.896423 575.264404,562.960693 
	C558.475708,563.114746 541.686096,563.167480 524.896851,563.261169 
	C519.156982,563.209351 513.417114,563.157532 506.767395,563.107788 
	C490.905304,563.099548 475.953033,563.059937 461.000854,563.085693 
	C437.414734,563.126404 413.828705,563.211060 390.242615,563.277161 
M571.695923,545.267944 
	C572.693787,545.236877 573.692871,545.226379 574.689392,545.171570 
	C582.177917,544.759705 583.862427,543.082642 584.232605,535.500732 
	C584.403015,532.010498 584.515137,528.513367 584.515686,525.019409 
	C584.530396,425.584412 584.529114,326.149384 584.518982,226.714386 
	C584.518738,224.051788 584.443909,221.386642 584.314453,218.727036 
	C583.827881,208.724670 582.046448,207.092773 570.992676,207.089233 
	C555.022400,207.089233 539.052185,207.089233 523.407959,207.089233 
	C523.407959,319.949707 523.407959,432.451019 523.407959,545.033936 
	C539.203369,545.033936 555.131287,545.033936 571.695923,545.267944 
M496.788940,545.099548 
	C503.678894,544.644470 505.708801,542.685486 505.957825,536.010315 
	C506.113068,531.849121 506.149628,527.681458 506.150024,523.516724 
	C506.160004,425.365234 506.162018,327.213745 506.145264,229.062241 
	C506.144440,224.231888 506.169250,219.385574 505.800446,214.575943 
	C505.464386,210.193069 503.277893,207.539993 498.308685,207.924072 
	C496.252167,208.083023 494.134521,207.450729 491.110291,207.045364 
	C388.989960,207.057983 286.869659,207.070267 184.749344,207.083572 
	C168.840424,207.085648 167.946930,207.946884 167.946106,223.551956 
	C167.940811,325.505920 167.942001,427.459869 167.951035,529.413818 
	C167.951263,532.078003 167.913651,534.756226 168.157944,537.403503 
	C168.643158,542.661804 170.845062,544.789124 176.154419,545.034546 
	C181.476578,545.280396 186.809464,545.393066 192.137680,545.394165 
	C288.760712,545.414368 385.383759,545.414429 482.006775,545.391541 
	C486.662903,545.390442 491.319000,545.138855 496.788940,545.099548 
z"/>
<path fill="#FEE94E" opacity="1.000000" stroke="none" 
	d="
M371.340302,674.141235 
	C364.188568,686.697327 353.723969,692.832520 339.638000,694.180969 
	C322.300171,695.840820 305.032379,698.336975 287.787842,700.840637 
	C263.708099,704.336609 246.540039,690.313049 243.986206,665.180481 
	C242.224609,647.844482 240.143707,630.529663 237.699341,613.277100 
	C234.509460,590.762695 247.987411,573.504211 270.817749,570.973206 
	C288.631927,568.998291 306.421021,566.729126 324.161591,564.176147 
	C346.930695,560.899475 364.370911,573.987549 367.121765,596.563721 
	C369.510712,616.169434 372.648560,635.695312 374.526917,655.345154 
	C375.100525,661.345703 372.599213,667.640198 371.340302,674.141235 
z"/>
<path fill="#FEE94E" opacity="1.000000" stroke="none" 
	d="
M224.011444,617.033569 
	C226.304230,634.935059 228.593704,652.391479 230.859207,669.851135 
	C233.852051,692.916016 220.086716,709.714050 196.913391,712.138367 
	C179.905960,713.917664 162.937347,716.208008 146.033661,718.805603 
	C121.044052,722.645752 103.659454,709.472839 100.873924,684.517273 
	C98.939735,667.188904 96.578430,649.903931 94.142532,632.636963 
	C90.716888,608.354309 104.803307,591.051086 129.200180,588.869934 
	C145.899780,587.376953 162.564026,585.203247 179.136200,582.637207 
	C203.990768,578.788757 221.010300,591.409729 224.011444,617.033569 
z"/>
<path fill="#FEE94E" opacity="1.000000" stroke="none" 
	d="
M127.574883,137.821442 
	C112.140472,139.742294 97.144424,141.668289 82.127983,143.419342 
	C75.697487,144.169189 69.228081,144.969971 62.770172,145.025299 
	C45.823700,145.170517 31.474737,132.891479 29.123714,116.096626 
	C26.221786,95.366341 23.552734,74.599030 21.132761,53.807007 
	C18.844206,34.144112 34.160812,17.120975 54.955803,14.960167 
	C72.961708,13.089171 90.945229,10.856386 108.848213,8.178843 
	C130.546356,4.933700 148.487152,18.500132 151.106445,40.417416 
	C153.452194,60.045872 156.096603,79.640388 158.790878,99.224892 
	C161.010666,115.360268 148.200455,133.511673 131.916031,136.950760 
	C130.613785,137.225784 129.308731,137.487701 127.574883,137.821442 
z"/>
<path fill="#FEE94E" opacity="1.000000" stroke="none" 
	d="
M390.110291,563.591919 
	C413.828705,563.211060 437.414734,563.126404 461.000854,563.085693 
	C475.953033,563.059937 490.905304,563.099548 506.288879,563.194458 
	C512.186951,576.253601 511.824738,590.277222 513.939575,603.847839 
	C515.396179,613.194519 515.979431,622.683228 517.583984,631.999817 
	C521.587585,655.247009 507.485199,673.663574 484.101654,676.055420 
	C466.434021,677.862488 448.789185,680.078979 431.236969,682.780884 
	C408.327911,686.307373 389.982361,671.943420 387.877655,648.925537 
	C386.351257,632.232666 384.119934,615.587097 381.642792,599.004028 
	C379.704102,586.025818 380.981476,574.133240 390.110291,563.591919 
z"/>
<path fill="#FEE94E" opacity="1.000000" stroke="none" 
	d="
M170.008911,189.580124 
	C155.831955,195.378632 150.399796,202.759293 150.211899,218.104401 
	C149.959473,238.718689 150.075974,259.337494 149.951950,280.400696 
	C131.918121,283.066864 113.923965,284.995697 96.029404,287.606995 
	C83.710426,289.404663 71.864853,290.112000 61.164822,282.175690 
	C53.125263,276.212677 48.325470,268.359863 47.032887,258.436096 
	C44.396618,238.196106 41.940845,217.931854 39.179119,197.709229 
	C36.738895,179.840790 51.400223,161.202972 69.660393,159.007187 
	C90.254082,156.530807 110.823524,153.849808 131.394135,151.185425 
	C148.456024,148.975494 166.766891,163.593399 168.958710,181.263580 
	C169.285507,183.898178 169.645645,186.528671 170.008911,189.580124 
z"/>
<path fill="#FEE94E" opacity="1.000000" stroke="none" 
	d="
M524.832153,563.651733 
	C541.686096,563.167480 558.475708,563.114746 575.264404,562.960693 
	C582.273254,562.896423 588.652283,561.084961 593.965637,556.106873 
	C599.132263,551.266235 601.452209,545.268433 601.910706,538.403625 
	C602.098877,535.586426 602.066406,532.754395 602.246399,529.478760 
	C609.934143,528.677612 617.596191,527.437927 625.067078,528.164368 
	C639.805664,529.597534 652.202515,542.973938 654.002563,557.709167 
	C656.518311,578.303345 659.173218,598.880798 661.839722,619.456238 
	C663.805847,634.627197 652.151306,652.446350 636.781494,655.885742 
	C625.480835,658.414551 613.831787,659.410706 602.322327,660.974609 
	C592.784058,662.270752 583.168091,663.072388 573.683167,664.667786 
	C552.995789,668.147400 534.341614,654.307922 531.893127,633.690369 
	C529.564148,614.078003 526.725342,594.526550 524.342651,574.920044 
	C523.910461,571.363831 524.597290,567.671692 524.832153,563.651733 
z"/>
<path fill="#FEE94E" opacity="1.000000" stroke="none" 
	d="
M601.996338,210.102570 
	C597.367676,196.160461 590.592285,190.231949 575.494812,189.777054 
	C554.035522,189.130478 532.548523,189.389999 511.073273,189.293579 
	C499.417694,189.241257 487.761841,189.253494 475.676178,189.125336 
	C473.735260,175.660721 472.660980,162.240204 470.619690,148.968414 
	C466.717285,123.596382 480.494293,106.151337 505.935913,103.868492 
	C523.106079,102.327835 540.238281,100.039734 557.267090,97.329720 
	C578.950073,93.879028 597.589600,107.806816 600.011108,129.601593 
	C602.007568,147.569275 604.740417,165.455460 606.710388,183.425613 
	C607.706604,192.512802 608.203735,201.786148 601.996338,210.102570 
z"/>
<path fill="#FEE94E" opacity="1.000000" stroke="none" 
	d="
M149.448349,294.996765 
	C149.939026,316.816071 150.029648,338.637665 150.055847,360.459351 
	C150.082062,382.285767 150.043869,404.112213 149.951797,426.382690 
	C136.522659,428.405487 123.107697,429.556824 109.844681,431.664276 
	C90.525009,434.734131 73.458069,427.046295 67.642838,410.614136 
	C64.863113,402.759430 64.215813,394.091858 63.075623,385.727997 
	C61.080868,371.095490 59.745186,356.369873 57.591022,341.763245 
	C55.109005,324.933563 67.431068,306.002136 84.346733,303.339478 
	C105.810318,299.960968 127.454025,297.726746 149.448349,294.996765 
z"/>
<path fill="#FEE94E" opacity="1.000000" stroke="none" 
	d="
M149.446228,440.909851 
	C149.942184,469.532776 149.979965,498.169830 150.089249,526.806580 
	C150.105728,531.126892 150.193054,535.476990 150.699570,539.759827 
	C152.354904,553.756775 161.303223,562.119751 175.517517,562.875854 
	C181.995514,563.220398 188.501144,563.045959 195.448181,563.188110 
	C187.805573,568.835938 178.225891,568.589661 169.103699,569.886169 
	C153.834167,572.056335 138.458603,573.497803 123.209679,575.791260 
	C103.798813,578.710693 84.935745,563.667480 82.925758,543.831360 
	C81.153839,526.344666 79.031578,508.867920 76.266624,491.513794 
	C72.570877,468.317688 83.256340,450.632172 104.564293,446.382324 
	C109.433182,445.411194 114.416389,444.995636 119.356300,444.401917 
	C129.237900,443.214203 139.125946,442.080109 149.446228,440.909851 
z"/>
<path fill="#FEE94E" opacity="1.000000" stroke="none" 
	d="
M461.176392,188.585068 
	C457.230530,189.118210 453.242676,189.275208 449.254852,189.275757 
	C409.796600,189.281174 370.338348,189.260666 330.418274,189.137375 
	C328.679077,179.654221 327.247498,170.299103 326.157654,160.904343 
	C324.129822,143.423599 337.878296,125.489868 355.314087,123.088097 
	C375.865112,120.257187 396.446075,117.629196 417.041016,115.135605 
	C436.555725,112.772804 453.726807,126.770889 456.086334,146.620773 
	C457.731781,160.463715 459.449158,174.298096 461.176392,188.585068 
z"/>
<path fill="#FEE94E" opacity="1.000000" stroke="none" 
	d="
M315.852234,188.617371 
	C314.256256,189.110229 312.604828,189.275650 310.953400,189.275696 
	C268.940338,189.276901 226.927277,189.260818 184.457092,189.136841 
	C183.641434,184.896042 183.021057,180.769485 182.969101,176.635757 
	C182.725998,157.287781 195.324860,143.289581 214.654968,140.887131 
	C234.243286,138.452576 253.815231,135.875931 273.369904,133.183929 
	C292.870636,130.499313 311.315277,146.007690 313.035553,166.500046 
	C313.645355,173.763718 314.858887,180.976715 315.852234,188.617371 
z"/>
<path fill="#FCE74D" opacity="1.000000" stroke="none" 
	d="
M602.796265,514.986084 
	C602.318542,503.368622 602.189819,491.742798 602.182068,480.116943 
	C602.160950,448.376923 602.190918,416.636871 602.295044,384.432587 
	C619.931091,384.487732 634.353699,398.661072 636.118103,416.052429 
	C638.077209,435.363861 640.605164,454.626526 643.308044,473.851013 
	C646.048340,493.341766 632.169739,511.757172 612.597290,513.940308 
	C609.465393,514.289673 606.332703,514.632080 602.796265,514.986084 
z"/>
<path fill="#FAE64C" opacity="1.000000" stroke="none" 
	d="
M602.727600,368.058411 
	C602.309143,351.144714 602.197876,334.172607 602.176331,317.200348 
	C602.146973,294.063477 602.185974,270.926544 602.284729,247.309174 
	C612.139587,252.428101 616.545471,261.412598 617.935669,272.091400 
	C620.505615,291.833862 622.628235,311.637268 625.405701,331.349243 
	C627.526367,346.399445 617.764771,362.957245 602.727600,368.058411 
z"/>
<path fill="#6EAB50" opacity="1.000000" stroke="none" 
	d="
M495.975098,545.003906 
	C491.319000,545.138855 486.662903,545.390442 482.006775,545.391541 
	C385.383759,545.414429 288.760712,545.414368 192.137680,545.394165 
	C186.809464,545.393066 181.476578,545.280396 176.154419,545.034546 
	C170.845062,544.789124 168.643158,542.661804 168.157944,537.403503 
	C167.913651,534.756226 167.951263,532.078003 167.951035,529.413818 
	C167.942001,427.459869 167.940811,325.505920 167.946106,223.551956 
	C167.946930,207.946884 168.840424,207.085648 184.749344,207.083572 
	C286.869659,207.070267 388.989960,207.057983 491.583252,207.484283 
	C493.344696,216.055481 495.726471,224.184174 495.753082,232.320557 
	C496.027740,316.235931 495.918365,400.152527 495.924164,484.068787 
	C495.925568,504.380493 495.957306,524.692200 495.975098,545.003906 
M358.959351,448.582703 
	C345.973358,450.362640 333.034851,452.977173 319.989838,453.719604 
	C302.089325,454.738342 284.536896,451.482452 267.465363,445.951355 
	C262.675537,444.399445 258.492432,445.486786 255.129822,448.993896 
	C251.885880,452.377228 251.108139,456.525116 252.696960,461.031403 
	C254.317719,465.628235 258.091309,467.566376 262.360840,468.855377 
	C279.653473,474.076050 297.292572,477.003510 315.395325,477.190918 
	C335.704834,477.401123 355.508759,474.464508 374.821777,468.216553 
	C381.592224,466.026245 384.910583,460.267731 383.161804,453.979706 
	C381.315796,447.342163 375.387787,444.094543 368.376740,445.919373 
	C365.484344,446.672211 362.613403,447.507568 358.959351,448.582703 
M236.937195,441.530396 
	C236.931427,438.867645 237.019958,436.200745 236.902664,433.542908 
	C236.510834,424.665680 230.361481,418.602570 222.014359,418.774780 
	C213.811844,418.944000 208.081360,424.960052 207.954498,433.760590 
	C207.844147,441.414581 207.850143,449.072479 207.952133,456.726715 
	C208.068253,465.441254 213.834702,471.568848 221.969711,471.833557 
	C230.081146,472.097443 236.558456,465.743195 236.878815,456.997589 
	C237.055405,452.177490 236.927689,447.346191 236.937195,441.530396 
M416.167328,418.847900 
	C405.728668,418.797516 400.114716,424.334320 400.068085,434.785889 
	C400.035370,442.114197 399.975189,449.444092 400.086426,456.770874 
	C400.215363,465.260559 406.395691,471.747009 414.239075,471.836090 
	C422.571594,471.930695 428.844604,465.657654 428.978088,456.887878 
	C429.092163,449.394623 429.041534,441.897980 428.994598,434.403290 
	C428.941742,425.959320 425.359314,421.379913 416.167328,418.847900 
M194.224655,240.076843 
	C195.943176,233.023102 197.629578,231.658722 204.625778,230.983215 
	C209.750275,230.488434 214.849960,229.725952 219.953949,229.032990 
	C225.318222,228.304718 227.363831,226.072113 227.089188,221.357559 
	C226.843384,217.138077 224.397247,215.000137 219.229874,214.959473 
	C208.069077,214.871613 196.906250,214.860077 185.745880,214.975571 
	C180.180984,215.033157 175.655548,218.433701 175.419846,223.854568 
	C174.950363,234.651581 175.039581,245.494751 175.451279,256.297760 
	C175.622559,260.792084 179.018921,263.658203 183.542740,263.609955 
	C187.799149,263.564545 191.350082,261.566101 192.057495,256.734283 
	C192.827393,251.475632 193.430557,246.192551 194.224655,240.076843 
z"/>
<path fill="#FEE94E" opacity="1.000000" stroke="none" 
	d="
M571.059265,545.033936 
	C555.131287,545.033936 539.203369,545.033936 523.407959,545.033936 
	C523.407959,432.451019 523.407959,319.949707 523.407959,207.089233 
	C539.052185,207.089233 555.022400,207.089233 571.471191,207.609467 
	C572.287720,212.763824 572.918274,217.397766 572.920837,222.032074 
	C572.977295,324.779816 572.990540,427.527588 572.883545,530.275269 
	C572.878418,535.195435 571.694336,540.114380 571.059265,545.033936 
z"/>
<path fill="#F5F37F" opacity="1.000000" stroke="none" 
	d="
M571.377563,545.150940 
	C571.694336,540.114380 572.878418,535.195435 572.883545,530.275269 
	C572.990540,427.527588 572.977295,324.779816 572.920837,222.032074 
	C572.918274,217.397766 572.287720,212.763824 571.927124,207.692780 
	C582.046448,207.092773 583.827881,208.724670 584.314453,218.727036 
	C584.443909,221.386642 584.518738,224.051788 584.518982,226.714386 
	C584.529114,326.149384 584.530396,425.584412 584.515686,525.019409 
	C584.515137,528.513367 584.403015,532.010498 584.232605,535.500732 
	C583.862427,543.082642 582.177917,544.759705 574.689392,545.171570 
	C573.692871,545.226379 572.693787,545.236877 571.377563,545.150940 
z"/>
<path fill="#ACE387" opacity="1.000000" stroke="none" 
	d="
M496.382019,545.051758 
	C495.957306,524.692200 495.925568,504.380493 495.924164,484.068787 
	C495.918365,400.152527 496.027740,316.235931 495.753082,232.320557 
	C495.726471,224.184174 493.344696,216.055481 492.050415,207.550751 
	C494.134521,207.450729 496.252167,208.083023 498.308685,207.924072 
	C503.277893,207.539993 505.464386,210.193069 505.800446,214.575943 
	C506.169250,219.385574 506.144440,224.231888 506.145264,229.062241 
	C506.162018,327.213745 506.160004,425.365234 506.150024,523.516724 
	C506.149628,527.681458 506.113068,531.849121 505.957825,536.010315 
	C505.708801,542.685486 503.678894,544.644470 496.382019,545.051758 
z"/>
<path fill="#010201" opacity="1.000000" stroke="none" 
	d="
M359.346008,448.444031 
	C362.613403,447.507568 365.484344,446.672211 368.376740,445.919373 
	C375.387787,444.094543 381.315796,447.342163 383.161804,453.979706 
	C384.910583,460.267731 381.592224,466.026245 374.821777,468.216553 
	C355.508759,474.464508 335.704834,477.401123 315.395325,477.190918 
	C297.292572,477.003510 279.653473,474.076050 262.360840,468.855377 
	C258.091309,467.566376 254.317719,465.628235 252.696960,461.031403 
	C251.108139,456.525116 251.885880,452.377228 255.129822,448.993896 
	C258.492432,445.486786 262.675537,444.399445 267.465363,445.951355 
	C284.536896,451.482452 302.089325,454.738342 319.989838,453.719604 
	C333.034851,452.977173 345.973358,450.362640 359.346008,448.444031 
z"/>
<path fill="#010201" opacity="1.000000" stroke="none" 
	d="
M236.937180,442.025177 
	C236.927689,447.346191 237.055405,452.177490 236.878815,456.997589 
	C236.558456,465.743195 230.081146,472.097443 221.969711,471.833557 
	C213.834702,471.568848 208.068253,465.441254 207.952133,456.726715 
	C207.850143,449.072479 207.844147,441.414581 207.954498,433.760590 
	C208.081360,424.960052 213.811844,418.944000 222.014359,418.774780 
	C230.361481,418.602570 236.510834,424.665680 236.902664,433.542908 
	C237.019958,436.200745 236.931427,438.867645 236.937180,442.025177 
z"/>
<path fill="#010201" opacity="1.000000" stroke="none" 
	d="
M416.589722,418.887390 
	C425.359314,421.379913 428.941742,425.959320 428.994598,434.403290 
	C429.041534,441.897980 429.092163,449.394623 428.978088,456.887878 
	C428.844604,465.657654 422.571594,471.930695 414.239075,471.836090 
	C406.395691,471.747009 400.215363,465.260559 400.086426,456.770874 
	C399.975189,449.444092 400.035370,442.114197 400.068085,434.785889 
	C400.114716,424.334320 405.728668,418.797516 416.589722,418.887390 
z"/>
<path fill="#ABE286" opacity="1.000000" stroke="none" 
	d="
M194.165527,240.498489 
	C193.430557,246.192551 192.827393,251.475632 192.057495,256.734283 
	C191.350082,261.566101 187.799149,263.564545 183.542740,263.609955 
	C179.018921,263.658203 175.622559,260.792084 175.451279,256.297760 
	C175.039581,245.494751 174.950363,234.651581 175.419846,223.854568 
	C175.655548,218.433701 180.180984,215.033157 185.745880,214.975571 
	C196.906250,214.860077 208.069077,214.871613 219.229874,214.959473 
	C224.397247,215.000137 226.843384,217.138077 227.089188,221.357559 
	C227.363831,226.072113 225.318222,228.304718 219.953949,229.032990 
	C214.849960,229.725952 209.750275,230.488434 204.625778,230.983215 
	C197.629578,231.658722 195.943176,233.023102 194.165527,240.498489 
z"/>
</svg>